<svg id="f465872b-d870-430a-ba80-54bf21ded598" data-name="Capa 1" xmlns="http://www.w3.org/2000/svg" viewBox="0 0 741 685"><defs><style>.\34 ce5a919-d346-4e85-b489-35fb930d2229,.\36 864ce52-955a-43e8-8c92-d237034f174c{fill:none;}.\36 864ce52-955a-43e8-8c92-d237034f174c{stroke:#d9d9d9;}.\35 1cc5f67-4a63-47dd-b611-d8fb45952065{fill:#15acb1;opacity:0.88;}.\34 ce5a919-d346-4e85-b489-35fb930d2229{stroke:#333;}.\31 9af47cc-7ef1-48e5-818f-3bf5beb223b7,.\34 44a5167-1e77-48da-8c55-32e035a75cd1{font-size:18px;}.\31 48c9ad6-9fc4-4368-ac8d-ad732d2d45ed,.\31 9af47cc-7ef1-48e5-818f-3bf5beb223b7,.\34 44a5167-1e77-48da-8c55-32e035a75cd1,.\35 6dfb1ec-5861-484c-99d3-f31775a7774a,.e2fb9573-5166-4fd7-9849-23789622e82b,.e6b68a5b-b8a4-45d4-bba1-40b2711e8d33{fill:#757575;}.\31 48c9ad6-9fc4-4368-ac8d-ad732d2d45ed,.\31 9af47cc-7ef1-48e5-818f-3bf5beb223b7,.\32 8f58348-6906-40af-b45d-95e4aec611d2,.\32 d0a12b9-f037-4d30-812d-e00297dcda77,.\35 6dfb1ec-5861-484c-99d3-f31775a7774a,.\38 a24be1c-e7f5-4ac9-8f19-50de202480d7{font-family:ArialMT, Arial;}.\35 6dfb1ec-5861-484c-99d3-f31775a7774a,.e2fb9573-5166-4fd7-9849-23789622e82b,.e6b68a5b-b8a4-45d4-bba1-40b2711e8d33{font-size:17px;}.\34 44a5167-1e77-48da-8c55-32e035a75cd1,.\36 57ad62e-8db0-4373-8859-9953701b27f3,.e2fb9573-5166-4fd7-9849-23789622e82b,.e6b68a5b-b8a4-45d4-bba1-40b2711e8d33{font-family:Arial-BoldMT, Arial;}.\34 44a5167-1e77-48da-8c55-32e035a75cd1,.\36 57ad62e-8db0-4373-8859-9953701b27f3,.c591b9e2-6e7c-45aa-8557-672737c58b8e,.e2fb9573-5166-4fd7-9849-23789622e82b{font-weight:700;}.\32 8f58348-6906-40af-b45d-95e4aec611d2{letter-spacing:0em;}.\36 57ad62e-8db0-4373-8859-9953701b27f3{font-size:32px;}.\36 57ad62e-8db0-4373-8859-9953701b27f3,.\38 a24be1c-e7f5-4ac9-8f19-50de202480d7{fill:#323232;}.\33 bc22240-e94b-4751-8682-57de664da708{letter-spacing:-0.07em;}.\31 48c9ad6-9fc4-4368-ac8d-ad732d2d45ed{font-size:14px;}.ef1e2073-fe9c-4e32-b0f7-2d77c5b07b5e{fill:#283659;}.\32 5cb35e4-5372-46db-92e7-da1f3b6f5ae0{fill:#fff;}.\38 a24be1c-e7f5-4ac9-8f19-50de202480d7{font-size:20px;}</style></defs><title>2017.11_TuristasVariacion</title><path class="6864ce52-955a-43e8-8c92-d237034f174c" d="M15.21,79.81H748"/><path class="6864ce52-955a-43e8-8c92-d237034f174c" d="M15.21,135.27H748"/><path class="6864ce52-955a-43e8-8c92-d237034f174c" d="M15.21,190.72H748"/><path class="6864ce52-955a-43e8-8c92-d237034f174c" d="M15.21,246.17H748"/><path class="6864ce52-955a-43e8-8c92-d237034f174c" d="M15.21,301.62H748"/><path class="6864ce52-955a-43e8-8c92-d237034f174c" d="M15.21,357.08H748"/><path class="6864ce52-955a-43e8-8c92-d237034f174c" d="M15.21,412.53H748"/><path class="6864ce52-955a-43e8-8c92-d237034f174c" d="M15.21,468H748"/><path class="6864ce52-955a-43e8-8c92-d237034f174c" d="M15.21,579.8H748"/><path class="6864ce52-955a-43e8-8c92-d237034f174c" d="M15.21,635.25H748"/><rect class="51cc5f67-4a63-47dd-b611-d8fb45952065" x="88.74" y="461.62" width="17.26" height="62.72"/><rect class="51cc5f67-4a63-47dd-b611-d8fb45952065" x="112.4" y="315.26" width="17.26" height="209.08"/><rect class="51cc5f67-4a63-47dd-b611-d8fb45952065" x="136.06" y="434.35" width="17.26" height="90"/><rect class="51cc5f67-4a63-47dd-b611-d8fb45952065" x="159.71" y="88" width="17.26" height="436.35"/><rect class="51cc5f67-4a63-47dd-b611-d8fb45952065" x="183.37" y="204.35" width="17.26" height="319.99"/><rect class="51cc5f67-4a63-47dd-b611-d8fb45952065" x="207.03" y="447.07" width="17.26" height="77.27"/><rect class="51cc5f67-4a63-47dd-b611-d8fb45952065" x="230.69" y="437.07" width="17.26" height="87.27"/><rect class="51cc5f67-4a63-47dd-b611-d8fb45952065" x="254.34" y="524.34" width="17.26" height="10"/><rect class="51cc5f67-4a63-47dd-b611-d8fb45952065" x="278" y="294.35" width="17.26" height="229.99"/><rect class="51cc5f67-4a63-47dd-b611-d8fb45952065" x="301.66" y="425.26" width="17.26" height="99.09"/><rect class="51cc5f67-4a63-47dd-b611-d8fb45952065" x="325.32" y="398.89" width="17.26" height="125.45"/><rect class="51cc5f67-4a63-47dd-b611-d8fb45952065" x="348.98" y="433.44" width="17.26" height="90.91"/><rect class="51cc5f67-4a63-47dd-b611-d8fb45952065" x="372.63" y="448.89" width="17.26" height="75.45"/><rect class="51cc5f67-4a63-47dd-b611-d8fb45952065" x="396.29" y="524.34" width="17.26" height="51.82"/><rect class="51cc5f67-4a63-47dd-b611-d8fb45952065" x="419.95" y="317.08" width="17.26" height="207.27"/><rect class="51cc5f67-4a63-47dd-b611-d8fb45952065" x="443.61" y="524.34" width="17.26" height="49.09"/><rect class="51cc5f67-4a63-47dd-b611-d8fb45952065" x="467.9" y="357.99" width="17.26" height="166.36"/><rect class="51cc5f67-4a63-47dd-b611-d8fb45952065" x="491.56" y="329.8" width="17.26" height="194.54"/><rect class="51cc5f67-4a63-47dd-b611-d8fb45952065" x="515.22" y="54.09" width="17.26" height="470.26"/><rect class="51cc5f67-4a63-47dd-b611-d8fb45952065" x="538.88" y="75.27" width="17.26" height="449.07"/><rect class="51cc5f67-4a63-47dd-b611-d8fb45952065" x="562.54" y="255.26" width="17.26" height="269.08"/><rect class="51cc5f67-4a63-47dd-b611-d8fb45952065" x="586.19" y="342.53" width="17.26" height="181.81"/><rect class="51cc5f67-4a63-47dd-b611-d8fb45952065" x="609.85" y="458.89" width="17.26" height="65.45"/><rect class="51cc5f67-4a63-47dd-b611-d8fb45952065" x="633.51" y="355.26" width="17.26" height="169.08"/><rect class="51cc5f67-4a63-47dd-b611-d8fb45952065" x="657.17" y="524.34" width="17.26" height="126.09"/><path class="4ce5a919-d346-4e85-b489-35fb930d2229" d="M15.21,524.34H748"/><text class="19af47cc-7ef1-48e5-818f-3bf5beb223b7" transform="translate(15.06 517) scale(0.99 1)">0</text><text class="19af47cc-7ef1-48e5-818f-3bf5beb223b7" transform="translate(10.11 575.16) scale(0.99 1)">-2</text><text class="e6b68a5b-b8a4-45d4-bba1-40b2711e8d33" transform="translate(99.5 611.93) rotate(-90) scale(0.99 1)"><tspan class="c591b9e2-6e7c-45aa-8557-672737c58b8e">2015 - </tspan><tspan class="28f58348-6906-40af-b45d-95e4aec611d2" x="52.93" y="0">Ene</tspan></text><text class="56dfb1ec-5861-484c-99d3-f31775a7774a" transform="translate(125.66 561.05) rotate(-90) scale(0.99 1)">Nov </text><text class="56dfb1ec-5861-484c-99d3-f31775a7774a" transform="translate(150.32 555.41) rotate(-90) scale(0.99 1)">Dic </text><text class="56dfb1ec-5861-484c-99d3-f31775a7774a" transform="translate(196.82 559.51) rotate(-90) scale(0.99 1)">Feb</text><text class="56dfb1ec-5861-484c-99d3-f31775a7774a" transform="translate(482.32 559.59) rotate(-90) scale(0.99 1)">Feb</text><text class="56dfb1ec-5861-484c-99d3-f31775a7774a" transform="translate(220.82 559.49) rotate(-90) scale(0.99 1)">Mar</text><text class="56dfb1ec-5861-484c-99d3-f31775a7774a" transform="translate(505.32 559.49) rotate(-90) scale(0.99 1)">Mar</text><text class="56dfb1ec-5861-484c-99d3-f31775a7774a" transform="translate(244.32 556.77) rotate(-90) scale(0.99 1)">Abr</text><text class="56dfb1ec-5861-484c-99d3-f31775a7774a" transform="translate(529.32 556.77) rotate(-90) scale(0.99 1)">Abr</text><text class="56dfb1ec-5861-484c-99d3-f31775a7774a" transform="translate(291.32 556.56) rotate(-90) scale(0.99 1)">Jun</text><text class="56dfb1ec-5861-484c-99d3-f31775a7774a" transform="translate(575.32 556.64) rotate(-90) scale(0.99 1)">Jun</text><text class="56dfb1ec-5861-484c-99d3-f31775a7774a" transform="translate(268.32 520.51) rotate(-90) scale(0.99 1)">May</text><text class="56dfb1ec-5861-484c-99d3-f31775a7774a" transform="translate(552.82 562.39) rotate(-90) scale(0.99 1)">May</text><text class="56dfb1ec-5861-484c-99d3-f31775a7774a" transform="translate(317.32 552.08) rotate(-90) scale(0.99 1)">Jul</text><text class="56dfb1ec-5861-484c-99d3-f31775a7774a" transform="translate(601.32 552.08) rotate(-90) scale(0.99 1)">Jul</text><text class="56dfb1ec-5861-484c-99d3-f31775a7774a" transform="translate(338.32 559.46) rotate(-90) scale(0.99 1)">Ago</text><text class="56dfb1ec-5861-484c-99d3-f31775a7774a" transform="translate(622.59 559.46) rotate(-90) scale(0.99 1)">Ago</text><text class="56dfb1ec-5861-484c-99d3-f31775a7774a" transform="translate(361.82 559.46) rotate(-90) scale(0.99 1)">Sep</text><text class="56dfb1ec-5861-484c-99d3-f31775a7774a" transform="translate(646.85 560.46) rotate(-90) scale(0.99 1)">Sep</text><text class="56dfb1ec-5861-484c-99d3-f31775a7774a" transform="translate(386.82 556.68) rotate(-90) scale(0.99 1)">Oct</text><text class="444a5167-1e77-48da-8c55-32e035a75cd1" transform="translate(673.69 518.78) rotate(-90) scale(0.99 1)">Oct</text><text class="56dfb1ec-5861-484c-99d3-f31775a7774a" transform="translate(409.82 519.86) rotate(-90) scale(0.99 1)">Nov</text><text class="56dfb1ec-5861-484c-99d3-f31775a7774a" transform="translate(433.82 554.88) rotate(-90) scale(0.99 1)">Dic</text><text class="e2fb9573-5166-4fd7-9849-23789622e82b" transform="translate(173.82 612.94) rotate(-90) scale(0.99 1)">2016 - Ene</text><text class="e6b68a5b-b8a4-45d4-bba1-40b2711e8d33" transform="translate(457.82 518.79) rotate(-90) scale(0.99 1)"><tspan class="c591b9e2-6e7c-45aa-8557-672737c58b8e">2017 -</tspan><tspan class="2d0a12b9-f037-4d30-812d-e00297dcda77" x="48.2" y="0" xml:space="preserve"> Ene</tspan></text><text class="19af47cc-7ef1-48e5-818f-3bf5beb223b7" transform="translate(13.11 630.16) scale(0.99 1)">-4</text><text class="19af47cc-7ef1-48e5-818f-3bf5beb223b7" transform="translate(15.06 461.89) scale(0.99 1)">2</text><text class="19af47cc-7ef1-48e5-818f-3bf5beb223b7" transform="translate(15.06 408.35) scale(0.99 1)">4</text><text class="19af47cc-7ef1-48e5-818f-3bf5beb223b7" transform="translate(15.06 352.26) scale(0.99 1)">6</text><text class="19af47cc-7ef1-48e5-818f-3bf5beb223b7" transform="translate(15.06 295.35) scale(0.99 1)">8</text><text class="19af47cc-7ef1-48e5-818f-3bf5beb223b7" transform="translate(9.12 239.08) scale(0.99 1)">10</text><text class="19af47cc-7ef1-48e5-818f-3bf5beb223b7" transform="translate(9.12 183.08) scale(0.99 1)">12</text><text class="19af47cc-7ef1-48e5-818f-3bf5beb223b7" transform="translate(9.12 128.18) scale(0.99 1)">14</text><text class="19af47cc-7ef1-48e5-818f-3bf5beb223b7" transform="translate(5.12 75.27) scale(0.99 1)">16</text><text class="657ad62e-8db0-4373-8859-9953701b27f3" transform="translate(15.12 28)"><tspan class="3bc22240-e94b-4751-8682-57de664da708">T</tspan><tspan x="17.17" y="0">asa de variación anual del número de turistas</tspan></text><text class="148c9ad6-9fc4-4368-ac8d-ad732d2d45ed" transform="translate(15.21 675.02) scale(0.99 1)">Fuente: Instituto Nacional de Estadística</text><polygon class="ef1e2073-fe9c-4e32-b0f7-2d77c5b07b5e" points="613.35 663.84 734.03 663.84 734.03 682.18 613.35 682.18 613.35 663.84 613.35 663.84"/><path class="25cb35e4-5372-46db-92e7-da1f3b6f5ae0" d="M710.16,667.94h-4.62v.58l1.21.29v8.53a1,1,0,0,1-.85.43,1.81,1.81,0,0,1-1.5-1.1l-1.15-2.07a2.39,2.39,0,0,0-2.11-1.42V673a2.83,2.83,0,0,0,2.92-2.62c0-1.78-1.61-2.47-3.48-2.47h-4.2v.58l1.37.29v8.65h0l-1.57.3L692.23,667a4.94,4.94,0,0,1-1.42,1.21l.15.43-3.59,8.79-1.08.29v.58h3.28v-.58l-1.07-.28,1.21-3.2H693l1.17,3.17-1.25.3v.58h8v-.58l-1.31-.28v-4a2,2,0,0,1,1.77,1.31l1.57,2.81a2.55,2.55,0,0,0,2.28,1.38,2.26,2.26,0,0,0,1.5-.62h3.56a5.35,5.35,0,0,0,5.49-5.2c0-3-2.35-5.2-5.59-5.2ZM690,673.47l1.4-3.69,1.35,3.69Zm10.3-.78h-.71v-3.88h.89a1.75,1.75,0,0,1,1.82,1.86,2,2,0,0,1-2,2Zm9.79,4.79h-1.48v-8.68h1.52c2.36,0,3.81,1.63,3.81,4.34s-1.51,4.34-3.85,4.34Z"/><path class="25cb35e4-5372-46db-92e7-da1f3b6f5ae0" d="M634.27,677.48,630.42,667a4.93,4.93,0,0,1-1.42,1.21l.15.43-3.57,8.78-.77.29-.23.58h3.17v-.58l-1.07-.28,1.21-3.2h3.33l1.17,3.17-1.25.3v.58h4.28v-.58l-1.14-.28Zm-6.1-4,1.41-3.69,1.35,3.69Z"/><polygon class="25cb35e4-5372-46db-92e7-da1f3b6f5ae0" points="625.1 675.7 624.72 675.48 622.47 677.53 620.55 677.53 620.55 668.81 621.71 668.52 621.71 667.93 617.57 667.93 617.57 668.52 618.73 668.81 618.73 677.46 617.57 677.76 617.57 678.34 624.07 678.34 625.1 675.7 625.1 675.7"/><polygon class="25cb35e4-5372-46db-92e7-da1f3b6f5ae0" points="643.17 667.93 643.17 668.52 644.43 668.81 641.71 675.77 638.85 668.8 640.2 668.52 640.2 667.93 635.57 667.93 635.57 668.52 636.9 668.81 641 678.7 641.44 678.7 645.54 668.82 645.57 668.82 646.85 668.52 646.85 667.93 643.17 667.93 643.17 667.93"/><path class="25cb35e4-5372-46db-92e7-da1f3b6f5ae0" d="M684.18,667.94v.58l1.25.3s.09,5.16,0,6.45a2.62,2.62,0,0,1-2.68,2.56h-.13a2.58,2.58,0,0,1-2.8-2.67v-6.35l1.21-.28V668h-4.18v.58l1.19.28v6.39a3.84,3.84,0,0,0,4.13,3.64c2.28,0,4.05-1.31,4.13-3.64l.08-6.38,1.22-.3v-.58Z"/><path class="25cb35e4-5372-46db-92e7-da1f3b6f5ae0" d="M729.36,677.46,725.54,667a4.93,4.93,0,0,1-1.42,1.21l.15.43-3.57,8.82-.61.25-.83-.26v-8.69l1.27-.29v-.58h-4.36v.58l1.26.3v8.66l-1.21.28v.58h6.63v-.58l-1.07-.28,1.21-3.2h3.33l1.17,3.17-1.25.3v.58h4.29v-.58l-1.15-.3Zm-6.09-4,1.41-3.69,1.35,3.69Z"/><path class="25cb35e4-5372-46db-92e7-da1f3b6f5ae0" d="M661.84,667.94v.58l1.27.3.08,6.8-6.52-7.68h-2.78v.58l1.26.28.1.05-.09,8.61h0l-1.31.3L649.92,667a4.94,4.94,0,0,1-1.37,1.22l.15.43-3.59,8.79-1.08.29v.58h3.28v-.58l-1.07-.28,1.21-3.2h3.33l1.17,3.17-1.25.3v.58h6.84v-.58l-1.31-.3-.15-7.51,7.45,8.76H664l.1-9.89,1.26-.29V668Zm-14.15,5.53,1.41-3.69,1.35,3.69Z"/><path class="25cb35e4-5372-46db-92e7-da1f3b6f5ae0" d="M672.82,673v.58l1.17.3v3.35a3.9,3.9,0,0,1-2.35.78c-2.36,0-3.88-2-3.88-4.75s1.48-5,3.94-5a3.71,3.71,0,0,1,3.48,2.83l.33-.2v-3.28l-.3-.16-.66.8a6.56,6.56,0,0,0-2.88-.73,5.82,5.82,0,0,0-5.84,5.73,5.29,5.29,0,0,0,5,5.54h.38a5.37,5.37,0,0,0,3.35-1.12l.92.61h.3v-4.47l1-.37V673Z"/><text class="8a24be1c-e7f5-4ac9-8f19-50de202480d7" transform="translate(61.51 49.45)"><tspan class="3bc22240-e94b-4751-8682-57de664da708">V</tspan><tspan x="11.86" y="0">ariación porcentual de cada mes respecto al mes del año anterior</tspan></text></svg>